<svg width="375" height="296" viewBox="0 0 375 296" fill="none" xmlns="http://www.w3.org/2000/svg">
<path fill-rule="evenodd" clip-rule="evenodd" d="M179.245 42.9022C214.017 19.6772 253.16 5.683 294.309 1.76724C301.679 1.06683 308.246 0.396166 308.9 0.278647C309.553 0.161127 310.089 52.5968 310.089 116.802V233.538H191.714H73.3398L74.4469 221.394C78.1914 180.309 92.2797 140.594 115.222 106.447C127.996 87.4375 159.735 55.936 179.245 42.9022ZM322.777 118.077C322.777 54.3205 323.253 1.68421 323.835 1.11072C324.415 0.535654 377.684 0.0655518 442.208 0.0655518H559.525L558.4 13.7558C556.954 31.3602 552.392 53.1562 546.545 70.4034C516.032 160.381 431.401 225.752 336.045 232.993L322.777 234V118.077ZM-72.0944 288.91C-37.3233 265.685 1.82037 251.691 42.9687 247.775C50.3388 247.075 56.9063 246.404 57.5598 246.287C58.2132 246.169 58.7492 298.605 58.7492 362.81V479.546H-59.6254H-178L-176.893 467.402C-173.148 426.317 -159.06 386.602 -136.117 352.455C-123.344 333.445 -91.6051 301.944 -72.0944 288.91ZM71.4371 364.085C71.4371 300.328 71.9129 247.692 72.4949 247.119C73.0754 246.544 126.344 246.073 190.868 246.073H308.185L307.06 259.764C305.614 277.368 301.053 299.164 295.205 316.411C264.692 406.389 180.061 471.76 84.7054 479.001L71.4371 480.008V364.085Z" fill="#AEB1D6"/>
</svg>
