<svg width="233" height="239" viewBox="0 0 233 239" fill="none" xmlns="http://www.w3.org/2000/svg">
<path fill-rule="evenodd" clip-rule="evenodd" d="M-28.8205 -61.7551C-4.92651 -77.7149 21.9722 -87.3314 50.2485 -90.0223C55.313 -90.5036 59.8261 -90.9644 60.2751 -91.0452C60.7242 -91.126 61.0925 -55.0932 61.0925 -10.9729V69.2458H-20.2521H-101.597L-100.836 60.9009C-98.2628 32.6682 -88.5816 5.37663 -72.8158 -18.0882C-64.0381 -31.1514 -42.2279 -52.7986 -28.8205 -61.7551ZM69.8114 -10.0964C69.8114 -53.9088 70.1383 -90.0793 70.5383 -90.4734C70.9372 -90.8686 107.542 -91.1916 151.882 -91.1916H232.5L231.727 -81.784C230.733 -69.6866 227.598 -54.7088 223.58 -42.8569C202.612 18.974 144.456 63.8954 78.9291 68.8711L69.8114 69.5634V-10.0964ZM-201.537 107.296C-177.643 91.3367 -150.744 81.7202 -122.468 79.0293C-117.403 78.548 -112.89 78.0872 -112.441 78.0064C-111.992 77.9256 -111.624 113.958 -111.624 158.079V238.297H-192.968H-274.313L-273.552 229.952C-270.979 201.72 -261.298 174.428 -245.532 150.963C-236.754 137.9 -214.944 116.253 -201.537 107.296ZM-102.905 158.955C-102.905 115.143 -102.578 78.9723 -102.178 78.5782C-101.779 78.183 -65.1739 77.86 -20.8342 77.86H59.7834L59.0108 87.2676C58.0168 99.365 54.8824 114.343 50.8641 126.195C29.8964 188.026 -28.2605 232.947 -93.787 237.923L-102.905 238.615V158.955Z" fill="#AEB1D6"/>
</svg>
